<svg width="16" height="16" viewBox="0 0 16 16" fill="none" xmlns="http://www.w3.org/2000/svg">
<circle cx="8" cy="8" r="8" fill="#008800"/>
<path d="M7.16962 11.6818C7.05165 11.6823 6.93826 11.6338 6.85316 11.5464L4.3984 9.09505C4.32056 9.00236 4.27797 8.88179 4.27909 8.75718C4.28021 8.63257 4.32491 8.5129 4.4044 8.42184C4.48389 8.33077 4.5924 8.27485 4.7085 8.26516C4.8246 8.25548 4.93997 8.29269 5.03169 8.36948L7.12124 10.4582L10.8759 5.52756C10.9128 5.47192 10.9602 5.42504 11.0148 5.38977C11.0694 5.35449 11.1302 5.3317 11.1934 5.32262C11.2566 5.31355 11.321 5.3184 11.3824 5.33702C11.4438 5.35565 11.5009 5.38759 11.5502 5.43083C11.5996 5.47408 11.6402 5.52777 11.6694 5.58848C11.6986 5.64919 11.7158 5.71556 11.7199 5.78369C11.7241 5.85182 11.7151 5.92027 11.6936 5.98454C11.672 6.04881 11.6385 6.10759 11.5948 6.15737L7.52719 11.4985C7.48696 11.5508 7.43717 11.5937 7.38078 11.6246C7.32439 11.6555 7.26266 11.6737 7.19945 11.6779L7.16962 11.6818Z" fill="white"/>
<path fill-rule="evenodd" clip-rule="evenodd" d="M7.18608 11.9999L7.1707 12C6.98636 12.0008 6.80607 11.9254 6.66798 11.7844L4.20531 9.3252L4.19683 9.3151C4.07027 9.16439 3.99815 8.9644 4.00004 8.75392C4.00193 8.54354 4.07751 8.34528 4.2066 8.19739C4.33515 8.05011 4.50739 7.9629 4.68814 7.94783C4.86872 7.93277 5.05024 7.99025 5.19687 8.11303L5.20659 8.12117L7.09436 10.0082L10.6598 5.32598C10.7194 5.23895 10.7937 5.16691 10.8773 5.11291C10.9642 5.05678 11.0599 5.02109 11.1586 5.00693C11.2571 4.99279 11.3577 5.00027 11.4542 5.02955C11.5505 5.05878 11.6411 5.10917 11.7203 5.17853C11.7995 5.24793 11.8658 5.33516 11.9141 5.43555C11.9624 5.53594 11.9913 5.64684 11.9983 5.76151C12.0054 5.87632 11.9901 5.99105 11.9543 6.09806C11.9197 6.20113 11.867 6.29452 11.7999 6.37343L7.7371 11.7082C7.67145 11.7936 7.5911 11.8624 7.50153 11.9114C7.41483 11.9589 7.32065 11.9872 7.22441 11.9949L7.18608 11.9999ZM7.19945 11.6779C7.26266 11.6737 7.32439 11.6555 7.38078 11.6246C7.43717 11.5937 7.48696 11.5508 7.52719 11.4985L11.5948 6.15737C11.6385 6.10759 11.672 6.04881 11.6936 5.98454C11.7151 5.92027 11.7241 5.85182 11.7199 5.78369C11.7158 5.71556 11.6986 5.64919 11.6694 5.58848C11.6402 5.52777 11.5996 5.47408 11.5502 5.43083C11.5009 5.38759 11.4438 5.35565 11.3824 5.33702C11.321 5.3184 11.2566 5.31355 11.1934 5.32262C11.1302 5.3317 11.0694 5.35449 11.0148 5.38977C10.9602 5.42504 10.9128 5.47192 10.8759 5.52756L7.12124 10.4582L5.03169 8.36948C4.93997 8.29269 4.8246 8.25548 4.7085 8.26516C4.5924 8.27485 4.48389 8.33077 4.4044 8.42184C4.32491 8.5129 4.28021 8.63257 4.27909 8.75718C4.27797 8.88179 4.32056 9.00236 4.3984 9.09505L6.85316 11.5464C6.93826 11.6338 7.05165 11.6823 7.16962 11.6818L7.19945 11.6779Z" fill="white"/>
</svg>
