<?xml version="1.0" encoding="utf-8"?>
<!-- Generator: Adobe Illustrator 24.3.0, SVG Export Plug-In . SVG Version: 6.00 Build 0)  -->
<svg version="1.1" id="Layer_1" xmlns="http://www.w3.org/2000/svg" xmlns:xlink="http://www.w3.org/1999/xlink" x="0px" y="0px"
	 viewBox="0 0 297.2 287" style="enable-background:new 0 0 297.2 287;" xml:space="preserve">
<path d="M103.9,140.3c-4.4,33.4-2.5,76.4,3,100.7c26.6,3.2,100.9,3.7,117.2,1.2c0.6-0.1,1.2-0.2,2.1-0.2c3-0.3,3.9-0.4,5-0.8
	c3.5-1.2,5.6-5.3,5.1-18.3c-0.1-3.2,1.4-6.3,4.1-8.2c8.5-5.9,9.8-12.2,6.3-24c-1.6-5.4,1.8-10.9,7.3-12c3.2-0.6,6.7-15.5,3.5-18.3
	c-4.2-3.7-4.4-10.2-0.4-14c1.7-1.6,3.9-7.5,3.9-12c0-8.4-2.4-11.5-10.6-12.9c-5.6-0.9-12-1.6-19.1-1.8c-11.7-0.5-24.4-0.1-36.7,0.9
	c-3,0.2-5.8,0.5-8.2,0.7c-1.4,0.1-2.5,0.3-3,0.3c-3.8,0.5-7.5-1.4-9.4-4.7c-0.6-1-1-2.2-1.3-3.6c-1.2-5.9,0.1-16.9,5.1-35.9
	c4.6-17.9-7.6-35.5-22.4-42.2c-2.1-0.9-3.3-0.8-4.5,0.7c0.2,4.4,0.3,8.9,0.2,13.1c0,3.6-0.2,6.8-0.4,9.5
	c-1.6,17.3-4.9,27.1-14.7,46.1c-3.5,6.8-8.9,13.6-15.5,20.6c-4.1,4.2-8.4,8.2-12.7,11.9C106.3,138.4,105,139.4,103.9,140.3
	L103.9,140.3z M99.7,119c2.4-2.2,4.8-4.5,7.1-6.9c5.5-5.8,9.8-11.3,12.4-16.3c8.8-16.9,11.3-24.5,12.6-39.1c0.2-2.2,0.3-4.9,0.4-8
	c0.1-3.9,0-8-0.2-12.1c-0.1-2-0.2-3.4-0.2-4.2c-0.1-1.9,0.3-3.8,1.3-5.4c1-1.7,2.6-3.7,4.9-5.7c6.7-5.7,15.5-7.7,25.2-3.4
	c22.3,10,40.3,35.9,32.9,64.2c-2.1,8.2-3.5,14.7-4.2,19.6c0.4,0,0.8-0.1,1.2-0.1c13.1-1,26.4-1.4,39-0.9c7.8,0.3,15,1,21.4,2.1
	c17.6,3,26.4,14.2,26.4,31.6c0,6.4-1.9,13.4-4.9,19c5.4,12.3,1.4,30.7-8.5,39.4c2.4,13.7-0.6,25.1-11.3,34.3
	c-0.3,17.6-6.5,28.1-17.8,32c-1.8,0.6-3.5,1-5.4,1.3c-1.2,0.2-1.4,0.2-3.9,0.5c-0.6,0.1-0.9,0.1-1.1,0.1
	c-17.4,2.6-87.2,2.3-118.7-0.8c-1,1.2-2.3,2.3-3.9,2.9c-25.9,10.3-34.8,11.1-76.2,6c-3.7-0.5-6.8-3.1-7.9-6.6
	c-11.9-39-10.4-81.9-0.8-139.5c0.9-5.5,6.4-9,11.8-7.6c21.4,5.8,35.5,6.3,64,3.1C96.8,118.2,98.3,118.5,99.7,119L99.7,119z
	 M36.5,136.1c-7.2,46.9-8.2,83.2,0.2,114.9c28.4,3.4,37,3.1,52.6-2.5c-6.6-26.4-8.9-73.2-4.2-110.1C65.8,140,52.3,139.5,36.5,136.1
	L36.5,136.1z M59.2,242.3c-7.6,0-13.5-4.2-14.3-13.9c-0.7-9.7,7.7-14,15.5-14c7.8,0,11.5,5.9,12.9,14
	C74.7,236.5,66.9,242.3,59.2,242.3z"/>
</svg>
