<?xml version="1.0" encoding="utf-8"?>
<!-- Generator: Adobe Illustrator 24.3.0, SVG Export Plug-In . SVG Version: 6.00 Build 0)  -->
<svg version="1.1" id="Layer_1" xmlns="http://www.w3.org/2000/svg" xmlns:xlink="http://www.w3.org/1999/xlink" x="0px" y="0px"
	 viewBox="0 0 304 286" style="enable-background:new 0 0 304 286;" xml:space="preserve">
<path d="M285.6,131.5c1.8-20.2-17-26.1-24.5-26.1c-28.9,0-57.9,0-86.8,0c4.2-9.1,9.2-33.1,2.9-66.2c-2.5-13.1-10.2-21.8-20.1-21.6
	c-7.9,0.1-15.5,6.2-16.3,13.9c-0.9,8.4-2.9,20.3-4.9,28.5c-6.2,26.1-39.6,60.5-60.6,72.5v127.4c14.3,8.1,29.8,10.9,46.4,10.6
	c26.2-0.5,100.9-0.1,114.4-0.2c9.6-0.1,19.1-4.6,23.7-16.2c6.3-15.8-9.9-23.7-9.9-23.7s17.7,0.9,21.8-15
	c4.2-16.3-12.1-22.8-12.1-22.8c11-1.2,18.1-4.1,20.7-14c3.1-11.7-4.4-20.5-16.3-25.6C265.8,152.9,284,150,285.6,131.5L285.6,131.5z
	 M57,112.3H23.3c-5,0-9,4-9,9v144.1c0,5,4,9,9,9H57c5,0,9-4,9-9V121.2C65.9,116.3,61.9,112.3,57,112.3z"/>
</svg>
