<?xml version="1.0" encoding="utf-8"?>
<!-- Generator: Adobe Illustrator 24.3.0, SVG Export Plug-In . SVG Version: 6.00 Build 0)  -->
<svg version="1.1" id="Layer_1" xmlns="http://www.w3.org/2000/svg" xmlns:xlink="http://www.w3.org/1999/xlink" x="0px" y="0px"
	 viewBox="0 0 752 752" style="enable-background:new 0 0 752 752;" xml:space="preserve">
<path d="M516.3,27C471.8,9.1,424.6,0,376,0C186.5,0,26.1,141.6,2.9,329.3C1,344.7,0,360.4,0,376c0,207.3,168.7,376,376,376
	c207.3,0,376-168.7,376-376C752,221.6,659.5,84.6,516.3,27L516.3,27z M376,709.9C191.9,709.9,42.1,560.1,42.1,376
	c0-13.9,0.9-27.8,2.6-41.5C65.3,167.8,207.7,42.1,376,42.1c43.2,0,85.1,8.1,124.6,24C627.7,117.2,709.9,238.9,709.9,376
	C709.9,560.1,560.1,709.9,376,709.9L376,709.9z M551.8,354.9H200.2c-11.6,0-21.1,9.4-21.1,21.1s9.4,21.1,21.1,21.1h351.6
	c11.6,0,21.1-9.4,21.1-21.1S563.4,354.9,551.8,354.9z"/>
</svg>
