<?xml version="1.0" encoding="UTF-8"?>
<svg width="752pt" height="752pt" version="1.1" viewBox="0 0 752 752" xmlns="http://www.w3.org/2000/svg">
 <path d="m375.99 229.62c-80.707 0-146.38 65.668-146.38 146.38 0 80.707 65.668 146.4 146.38 146.4 80.707 0 146.4-65.695 146.4-146.4 0-80.707-65.695-146.38-146.4-146.38zm0 23.668c67.91 0 122.71 54.797 122.71 122.71 0 67.91-54.797 122.71-122.71 122.71-67.91 0-122.71-54.797-122.71-122.71 0-67.91 54.797-122.71 122.71-122.71zm0 53.52c-6.5234 0.011718-11.812 5.2969-11.82 11.82v45.547h-45.547c-6.5234 0.007813-11.809 5.2969-11.82 11.82-0.003907 6.5352 5.2852 11.84 11.82 11.848h45.547v45.52c-0.003906 6.5352 5.2852 11.836 11.82 11.848 3.1445 0.003907 6.1602-1.2461 8.3828-3.4688 2.2227-2.2227 3.4688-5.2383 3.4648-8.3789v-45.52h45.52c3.1406 0.003906 6.1562-1.2422 8.3789-3.4648 2.2227-2.2227 3.4727-5.2383 3.4688-8.3828-0.011719-6.5352-5.3125-11.824-11.848-11.82h-45.52v-45.547c-0.007813-6.5352-5.3125-11.824-11.848-11.82z"/>
</svg>
